<svg width="32" height="32" viewBox="0 0 32 32" fill="none" xmlns="http://www.w3.org/2000/svg">
<path fill-rule="evenodd" clip-rule="evenodd" d="M7.5446 4.60515C8.21854 4.36612 8.90312 4.3335 9.4701 4.3335H10.2867C11.6638 4.3335 13.0069 4.7607 14.1309 5.55619L14.8001 6.0298C15.1511 6.27808 15.5703 6.41142 16 6.41142C16.4299 6.41142 16.8491 6.27808 17.1999 6.02979L17.8691 5.5562C18.9931 4.7607 20.3363 4.3335 21.7132 4.3335H22.5299C23.0969 4.3335 23.7815 4.36612 24.4553 4.60514C26.3797 5.28764 27.9016 6.85604 28.9039 9.39368C29.8959 11.9052 30.4052 15.4191 30.3252 20.1539C30.3083 21.1532 30.1836 22.2732 29.7993 23.282C29.4101 24.304 28.73 25.2674 27.5857 25.8146C26.9348 26.1259 26.1676 26.3335 25.2977 26.3335C24.2485 26.3335 23.3855 26.0312 22.7083 25.5875C22.0784 25.1746 21.5276 24.6408 21.0571 24.1848C20.9997 24.1292 20.9436 24.075 20.8887 24.022C20.3488 23.5024 19.8949 23.097 19.3913 22.8358C18.7549 22.5058 18.0487 22.3335 17.3319 22.3335H14.6683C13.9513 22.3335 13.245 22.5058 12.6087 22.8358C12.105 23.097 11.6512 23.5024 11.1114 24.022C11.0564 24.075 11.0003 24.1292 10.943 24.1848C10.4724 24.6408 9.92164 25.1746 9.2917 25.5875C8.6145 26.0312 7.75151 26.3335 6.70228 26.3335C5.83242 26.3335 5.06516 26.1259 4.41422 25.8146C3.26998 25.2674 2.58995 24.304 2.20066 23.282C1.81643 22.2732 1.69178 21.1532 1.67487 20.1539C1.59476 15.4192 2.10412 11.9052 3.0961 9.3937C4.0984 6.85606 5.62027 5.28764 7.5446 4.60515ZM9.4701 6.3335C8.95924 6.3335 8.55504 6.36884 8.21314 6.4901C6.96054 6.93436 5.80131 7.98891 4.95626 10.1284C4.10087 12.2941 3.59662 15.5114 3.67458 20.12C3.68952 21.0034 3.80104 21.8648 4.06967 22.5702C4.33323 23.2622 4.72275 23.7452 5.27708 24.0103C5.68475 24.2052 6.15872 24.3335 6.70228 24.3335C7.34911 24.3335 7.833 24.1522 8.19535 23.9147C8.65636 23.6126 9.0661 23.2168 9.55828 22.7414C9.61259 22.6888 9.66788 22.6355 9.72438 22.5811C10.259 22.0664 10.8983 21.4698 11.688 21.0603C12.6088 20.5827 13.6309 20.3335 14.6683 20.3335H17.3319C18.3691 20.3335 19.3912 20.5827 20.312 21.0603C21.1017 21.4698 21.7411 22.0664 22.2756 22.5811C22.3321 22.6355 22.3875 22.6888 22.4417 22.7414C22.9339 23.2168 23.3436 23.6126 23.8047 23.9147C24.1671 24.1522 24.6509 24.3335 25.2977 24.3335C25.8413 24.3335 26.3152 24.2052 26.7229 24.0103C27.2773 23.7452 27.6668 23.2622 27.9304 22.5702C28.1989 21.8648 28.3105 21.0034 28.3255 20.12C28.4033 15.5114 27.8992 12.294 27.0437 10.1284C26.1987 7.9889 25.0395 6.93435 23.7868 6.4901C23.4449 6.36884 23.0408 6.3335 22.5299 6.3335H21.7132C20.7501 6.3335 19.8107 6.6323 19.0244 7.18871L18.3552 7.66231C17.6667 8.14968 16.8437 8.41142 16 8.41142C15.1564 8.41142 14.3335 8.1497 13.6448 7.66232L12.9756 7.18872C12.1894 6.63231 11.2499 6.3335 10.2867 6.3335H9.4701ZM10 11.0002C10.5523 11.0002 11 11.4479 11 12.0002V13.0002H12C12.5523 13.0002 13 13.4479 13 14.0002C13 14.5524 12.5523 15.0002 12 15.0002H11V16.0002C11 16.5524 10.5523 17.0002 10 17.0002C9.44772 17.0002 9 16.5524 9 16.0002V15.0002H8C7.44772 15.0002 7 14.5524 7 14.0002C7 13.4479 7.44772 13.0002 8 13.0002H9V12.0002C9 11.4479 9.44772 11.0002 10 11.0002Z" fill="#C7C7C7"/>
<path d="M25.3333 13.6665C25.3333 14.2188 24.8856 14.6665 24.3333 14.6665C23.7811 14.6665 23.3333 14.2188 23.3333 13.6665C23.3333 13.1142 23.7811 12.6665 24.3333 12.6665C24.8856 12.6665 25.3333 13.1142 25.3333 13.6665Z" fill="#C7C7C7"/>
<path d="M21.3333 13.6665C21.3333 14.2188 20.8856 14.6665 20.3333 14.6665C19.7811 14.6665 19.3333 14.2188 19.3333 13.6665C19.3333 13.1142 19.7811 12.6665 20.3333 12.6665C20.8856 12.6665 21.3333 13.1142 21.3333 13.6665Z" fill="#C7C7C7"/>
<path d="M22.3333 10.6665C22.8856 10.6665 23.3333 11.1142 23.3333 11.6665C23.3333 12.2188 22.8856 12.6665 22.3333 12.6665C21.7811 12.6665 21.3333 12.2188 21.3333 11.6665C21.3333 11.1142 21.7811 10.6665 22.3333 10.6665Z" fill="#C7C7C7"/>
<path d="M22.3333 14.6665C22.8856 14.6665 23.3333 15.1142 23.3333 15.6665C23.3333 16.2188 22.8856 16.6665 22.3333 16.6665C21.7811 16.6665 21.3333 16.2188 21.3333 15.6665C21.3333 15.1142 21.7811 14.6665 22.3333 14.6665Z" fill="#C7C7C7"/>
</svg>
